<?xml version="1.0" encoding="UTF-8" standalone="no"?>
<!DOCTYPE svg PUBLIC "-//W3C//DTD SVG 1.1//EN" "http://www.w3.org/Graphics/SVG/1.1/DTD/svg11.dtd">
<svg width="100%" height="100%" viewBox="0 0 142 146" version="1.1" xmlns="http://www.w3.org/2000/svg" xmlns:xlink="http://www.w3.org/1999/xlink" xml:space="preserve" xmlns:serif="http://www.serif.com/" style="fill-rule:evenodd;clip-rule:evenodd;stroke-linejoin:round;stroke-miterlimit:2;">
    <g transform="matrix(1,0,0,1,-29.136,-29.1667)">
        <path d="M100,175C139.121,175 170.833,145.154 170.833,108.333C170.833,71.513 174.554,70.729 100,70.729C25.446,70.729 29.167,71.513 29.167,108.333C29.167,145.154 60.879,175 100,175Z" style="fill:rgb(255,92,0);fill-rule:nonzero;"/>
        <path d="M29.167,95.833C29.167,132.406 61.142,162.5 100,162.5C138.858,162.5 170.833,132.406 170.833,95.833L170.833,95.833C170.833,59.261 138.858,29.167 100,29.167C61.142,29.167 29.167,59.261 29.167,95.833L29.167,95.833Z" style="fill:rgb(255,204,0);fill-rule:nonzero;"/>
        <path d="M160.2,60.683C162.613,64.332 164.651,68.216 166.283,72.275L79.029,159.529C74.66,158.259 70.419,156.582 66.362,154.521L160.2,60.683ZM123.233,32.838C134.488,36.513 144.45,42.783 152.317,50.887L55.5,147.708C46.404,140.783 39.167,131.788 34.6,121.475L123.233,32.838Z" style="fill:rgb(255,227,182);fill-rule:nonzero;"/>
        <path d="M37.5,93.75C37.5,124.608 65.714,150 100,150C134.286,150 162.5,124.608 162.5,93.75C162.5,62.892 134.286,37.5 100,37.5C65.714,37.5 37.5,62.892 37.5,93.75Z" style="fill:rgb(255,115,37);fill-rule:nonzero;"/>
        <path d="M41.667,93.75C41.667,122.322 67.999,145.833 100,145.833C132.001,145.833 158.333,122.322 158.333,93.75C158.333,65.178 132.001,41.667 100,41.667C67.999,41.667 41.667,65.178 41.667,93.75L41.667,93.75Z" style="fill:rgb(255,179,41);fill-rule:nonzero;"/>
        <path d="M157.917,100C154.458,125.817 129.846,145.833 100,145.833C70.154,145.833 45.542,125.817 42.083,100L157.917,100Z" style="fill:rgb(255,155,26);fill-rule:nonzero;"/>
        <path d="M100,41.667C121.108,41.667 139.596,51.675 149.838,66.667L50.167,66.667C60.408,51.675 78.896,41.667 100.004,41.667L100,41.667Z" style="fill:rgb(255,204,0);fill-rule:nonzero;"/>
        <path d="M114.775,99.617L133.275,96.896L133.333,104.892C132.083,109.783 130.125,113.871 127.442,117.15C124.783,120.416 121.354,122.969 117.463,124.579C113.488,126.246 108.429,127.083 102.292,127.083C94.842,127.083 88.758,126.067 84.033,124.029C79.313,121.992 75.238,118.412 71.808,113.283C68.379,108.158 66.667,101.596 66.667,93.596C66.667,82.929 69.683,74.737 75.713,69.008C81.746,63.279 90.275,60.417 101.308,60.417C109.942,60.417 116.729,62.058 121.671,65.337C123.617,66.629 127.238,68.921 132.529,72.212C132.463,75.429 132.513,78.179 132.679,80.454L113.979,84.371C113.325,82.404 112.637,80.971 111.921,80.062C110.769,78.565 109.28,77.36 107.575,76.546C105.776,75.706 103.81,75.284 101.825,75.312C97.025,75.312 93.346,77.129 90.792,80.762C88.858,83.458 87.892,87.692 87.892,93.462C87.892,100.612 89.046,105.512 91.35,108.162C93.658,110.817 96.9,112.142 101.075,112.142C105.125,112.142 108.187,111.071 110.262,108.933C112.333,106.796 113.837,103.688 114.775,99.617Z" style="fill:rgb(255,92,0);fill-rule:nonzero;"/>
        <path d="M114.775,91.283L133.333,96.558C132.083,101.45 130.125,105.537 127.442,108.817C124.783,112.083 121.354,114.636 117.462,116.246C113.487,117.912 108.429,118.75 102.292,118.75C94.842,118.75 88.758,117.733 84.033,115.696C79.312,113.658 75.237,110.079 71.808,104.95C68.379,99.825 66.667,93.262 66.667,85.262C66.667,74.596 69.683,66.404 75.712,60.675C81.746,54.946 90.275,52.083 101.308,52.083C109.942,52.083 116.729,53.725 121.671,57.004C126.608,60.287 130.279,65.325 132.679,72.121L113.979,76.038C113.325,74.071 112.637,72.637 111.921,71.729C110.769,70.231 109.28,69.026 107.575,68.212C105.776,67.373 103.81,66.951 101.825,66.979C97.025,66.979 93.346,68.796 90.792,72.429C88.858,75.125 87.892,79.358 87.892,85.129C87.892,92.279 89.046,97.179 91.35,99.829C93.658,102.483 96.9,103.808 101.075,103.808C105.125,103.808 108.187,102.738 110.262,100.6C112.333,98.462 113.837,95.354 114.775,91.283Z" style="fill:rgb(255,220,150);fill-rule:nonzero;"/>
        <path d="M121.667,57.004C125.35,59.45 128.329,62.875 130.6,67.275L123.912,73.954L113.979,76.038C113.325,74.071 112.637,72.638 111.921,71.729C110.769,70.231 109.28,69.026 107.575,68.212C105.776,67.373 103.81,66.951 101.825,66.979C97.025,66.979 93.346,68.796 90.792,72.429C88.858,75.125 87.892,79.358 87.892,85.129C87.892,92.279 89.046,97.179 91.35,99.829C92.429,101.071 93.708,102.021 95.196,102.679L82.767,115.104C78.579,112.996 74.925,109.613 71.808,104.95C69.871,102.05 68.479,98.696 67.642,94.875L109.808,52.708C114.529,53.458 118.483,54.892 121.671,57.004L121.667,57.004Z" style="fill:rgb(255,236,189);fill-rule:nonzero;"/>
    </g>
</svg>
